HIERARCHY
ROOT root
{
	OFFSET	0	13.1	24.9
	CHANNELS 6  Xposition Yposition Zposition Xrotation Yrotation Zrotation
	JOINT spine_1
	{
		OFFSET	0	9.99999	0
		CHANNELS 3  Xrotation Yrotation Zrotation
		JOINT spine_2
		{
			OFFSET	0	112	-10
			CHANNELS 3  Xrotation Yrotation Zrotation
			JOINT spine_3
			{
				OFFSET	0	206.5	19.3
				CHANNELS 3  Xrotation Yrotation Zrotation
				JOINT spine_4
				{
					OFFSET	0	110.4	14.6
					CHANNELS 3  Xrotation Yrotation Zrotation
					JOINT neck_1
					{
						OFFSET	0	71.8	-50.3
						CHANNELS 3  Xrotation Yrotation Zrotation
						JOINT neck_2
						{
							OFFSET	0	86.2	-25.8
							CHANNELS 3  Xrotation Yrotation Zrotation
							JOINT head_ee
							{
								OFFSET	0	179.8	-8.7
								CHANNELS 3  Xrotation Yrotation Zrotation
								End Site
								{
									OFFSET	1	0	0
								}
							}
						}
					}
					JOINT left_clavicle
					{
						OFFSET	-43.2	22.4	-70.8
						CHANNELS 3  Xrotation Yrotation Zrotation
						JOINT left_shoulder
						{
							OFFSET	-93.9	-5.79999	48.7
							CHANNELS 3  Xrotation Yrotation Zrotation
							JOINT left_elbow
							{
								OFFSET	-291.4	-30.8	15.2
								CHANNELS 3  Xrotation Yrotation Zrotation
								JOINT left_lowarm_twist
								{
									OFFSET	-110.7	-3.89999	13.6
									CHANNELS 3  Xrotation Yrotation Zrotation
									JOINT left_hand
									{
										OFFSET	-110.7	-3.89999	13.6
										CHANNELS 3  Xrotation Yrotation Zrotation
										JOINT left_ee
										{
											OFFSET	-80.8	-5.10001	12.1
											CHANNELS 3  Xrotation Yrotation Zrotation
											End Site
											{
												OFFSET	1	0	0
											}
										}
									}
								}
							}
						}
					}
					JOINT right_clavicle
					{
						OFFSET	43.2	22.4	-70.8
						CHANNELS 3  Xrotation Yrotation Zrotation
						JOINT right_shoulder
						{
							OFFSET	93.9	-5.79999	48.7
							CHANNELS 3  Xrotation Yrotation Zrotation
							JOINT right_elbow
							{
								OFFSET	291.4	-30.8	15.2
								CHANNELS 3  Xrotation Yrotation Zrotation
								JOINT right_lowarm_twist
								{
									OFFSET	110.7	-3.89999	13.6
									CHANNELS 3  Xrotation Yrotation Zrotation
									JOINT right_hand
									{
										OFFSET	110.7	-3.89999	13.6
										CHANNELS 3  Xrotation Yrotation Zrotation
										JOINT right_ee
										{
											OFFSET	80.8	-5.10001	12.1
											CHANNELS 3  Xrotation Yrotation Zrotation
											End Site
											{
												OFFSET	1	0	0
											}
										}
									}
								}
							}
						}
					}
				}
			}
		}
	}
	JOINT left_hip
	{
		OFFSET	-82.8	-127.5	0.300001
		CHANNELS 3  Xrotation Yrotation Zrotation
		JOINT left_knee
		{
			OFFSET	-28.2	-396.7	2.2
			CHANNELS 3  Xrotation Yrotation Zrotation
			JOINT left_ankle
			{
				OFFSET	-11.7	-411.3	35.4
				CHANNELS 3  Xrotation Yrotation Zrotation
				JOINT left_toes
				{
					OFFSET	0	-60	-88.6
					CHANNELS 3  Xrotation Yrotation Zrotation
					JOINT left_foot_ee
					{
						OFFSET	-22.5	-16.5	-42.2
						CHANNELS 3  Xrotation Yrotation Zrotation
						End Site
						{
							OFFSET	1	0	0
						}
					}
				}
			}
		}
	}
	JOINT right_hip
	{
		OFFSET	82.8	-127.5	0.300001
		CHANNELS 3  Xrotation Yrotation Zrotation
		JOINT right_knee
		{
			OFFSET	28.2	-396.7	2.2
			CHANNELS 3  Xrotation Yrotation Zrotation
			JOINT right_ankle
			{
				OFFSET	11.7	-411.3	35.4
				CHANNELS 3  Xrotation Yrotation Zrotation
				JOINT right_toes
				{
					OFFSET	0	-60	-88.6
					CHANNELS 3  Xrotation Yrotation Zrotation
					JOINT right_foot_ee
					{
						OFFSET	22.5	-16.5	-42.2
						CHANNELS 3  Xrotation Yrotation Zrotation
						End Site
						{
							OFFSET	1	0	0
						}
					}
				}
			}
		}
	}
}
MOTION
Frames: 12
Frame Time: 0.02
959.903 648.903 -1534.14 -74.8088 68.3085 73.3165 10.1321 0.576595 0.70545 10.1323 0.530538 0.740709 10.1387 0.504489 0.75869 10.1384 0.617976 0.669498 -24.9531 -10.2669 -2.83151 -25.6506 -18.5942 -7.94911 -0.0 0.0 -0.0 4.29119 11.5065 8.62887 -55.0818 -45.6298 47.006 0.213649 -6.04157 0.0112746 79.6026 -3.7928 -8.58721 3.14209 -7.68328 18.2524 -0.0 0.0 -0.0 10.1509 -9.92753 -19.1488 -33.7455 37.5036 -44.1032 0.596635 16.4655 -0.0863251 20.0001 -0.265889 2.52804 -1.68368 24.5507 21.759 0.0 0.0 0.0 65.1658 -22.3622 13.7152 -53.4793 -1.5385 7.76906 17.0558 25.7857 -2.48623 7.89238 -0.0 -0.0 -0.0 0.0 -0.0 30.2266 -0.452867 -7.17814 -20.0985 -0.294455 -3.05443 38.4846 -23.9945 4.98938 -14.2316 0.0 0.0 0.0 0.0 0.0 
954.356 650.71 -1536.99 -76.845 67.7652 75.8211 10.0984 0.498478 0.483387 10.0984 0.466709 0.514126 10.1025 0.448222 0.530321 10.1025 0.52635 0.452878 -24.1883 -10.6494 -2.39259 -24.9321 -19.4932 -7.60934 -0.0 0.0 -0.0 4.49483 10.0837 8.95948 -54.8019 -45.0167 48.6514 0.200202 -5.66389 0.00990345 79.4158 -3.77135 -8.57649 3.08716 -7.44171 17.9702 -0.0 0.0 -0.0 10.9428 -8.26974 -20.8554 -33.767 37.6159 -42.8711 0.516342 14.3477 -0.0649904 19.2594 -0.271873 2.43363 -1.50557 24.2824 20.4264 0.0 0.0 0.0 68.7686 -22.1212 14.7803 -55.0594 -1.69077 7.95909 17.9346 26.1718 -2.61145 8.69991 -0.0 -0.0 -0.0 0.0 -0.0 30.8531 -1.44745 -7.26181 -17.8201 -0.315216 -2.70548 37.4015 -23.526 4.86838 -14.7836 0.0 0.0 0.0 0.0 0.0 
944.485 649.329 -1544.11 -77.4981 67.2288 76.1712 10.0964 0.481049 0.543336 10.0964 0.445501 0.572844 10.1007 0.424932 0.588264 10.1006 0.512503 0.513773 -24.3213 -10.8825 -2.20162 -25.1197 -20.0271 -7.58986 -0.0 0.0 -0.0 4.51245 8.90155 8.97177 -54.7988 -44.4714 49.5885 0.189292 -5.35708 0.00885574 79.294 -3.75739 -8.56947 2.95669 -6.96129 17.2589 -0.0 0.0 -0.0 11.2878 -6.73303 -21.7167 -33.4032 37.9487 -41.9199 0.50416 14.0227 -0.0620051 18.5816 -0.27628 2.34716 -1.37888 24.1671 19.5116 0.0 0.0 0.0 70.6369 -23.1481 14.8122 -51.2738 -1.33491 7.49705 17.9127 26.4901 -2.61347 8.93023 -0.0 -0.0 -0.0 0.0 -0.0 29.6705 -2.09692 -7.17332 -16.3 -0.321344 -2.47234 38.2097 -22.965 4.93311 -14.7809 0.0 0.0 0.0 0.0 0.0 
930.871 646.881 -1540.88 -75.9834 66.8522 74.4862 10.1175 0.501092 0.717754 10.1177 0.454405 0.748183 10.1231 0.427928 0.763635 10.1227 0.543157 0.686473 -24.4136 -11.0917 -2.16257 -25.2542 -20.4484 -7.68904 -0.0 0.0 -0.0 4.60982 7.89868 9.12775 -54.5845 -44.0955 50.2512 0.189637 -5.36678 0.00888799 79.2216 -3.74909 -8.56528 2.82787 -6.44884 16.5744 -0.0 0.0 -0.0 11.2252 -5.2436 -21.757 -32.8332 38.3496 -40.998 0.502506 13.9785 -0.0616048 17.7832 -0.280157 2.24526 -1.21295 24.7981 18.6217 0.0 0.0 0.0 71.7041 -23.8519 14.874 -48.5129 -1.09514 7.14599 16.9057 26.6366 -2.47823 8.81925 -0.0 -0.0 -0.0 0.0 -0.0 28.9891 -2.63296 -7.16987 -14.9019 -0.321518 -2.25784 38.7718 -22.5138 4.97563 -14.7773 0.0 0.0 0.0 0.0 0.0 
919.401 643.894 -1548.16 -74.658 66.4724 72.9523 10.1009 0.514526 0.826628 10.1011 0.460885 0.857691 10.1073 0.430335 0.873418 10.1067 0.56287 0.794499 -24.8668 -11.3548 -2.23667 -25.7753 -20.9324 -7.99996 -0.0 0.0 -0.0 4.60667 7.66403 9.11783 -54.1846 -43.8377 51.0805 0.190689 -5.39639 0.00898668 79.17 -3.74319 -8.56229 2.73218 -6.00749 16.0927 -0.0 0.0 -0.0 11.1127 -3.82991 -21.6689 -32.0 38.8191 -40.1322 0.525283 14.5856 -0.0672239 17.2256 -0.282023 2.17407 -1.12118 25.2722 18.1822 0.0 0.0 0.0 72.5223 -24.4231 15.0673 -46.3733 -0.921181 6.86635 16.1719 26.4562 -2.37456 8.59987 -0.0 -0.0 -0.0 0.0 -0.0 28.5888 -3.04519 -7.48345 -13.9096 -0.318466 -2.10562 39.1632 -22.1941 5.0047 -14.7751 0.0 0.0 0.0 0.0 0.0 
906.272 645.428 -1552.44 -70.9301 66.1351 69.811 10.087 0.434114 0.609885 10.0871 0.394427 0.636272 10.0911 0.371534 0.649904 10.0909 0.46951 0.583074 -24.745 -11.5906 -2.18986 -25.6918 -21.4028 -8.06494 -0.0 0.0 -0.0 4.58863 7.516 9.08252 -53.2539 -43.1192 52.3285 0.190812 -5.39984 0.00899819 79.2714 -3.7548 -8.56816 2.60367 -5.40111 15.4521 -0.0 0.0 -0.0 10.9903 -2.82701 -21.5073 -30.8378 39.3757 -39.5974 0.611632 16.8561 -0.090625 16.069 -0.283684 2.02636 -1.07033 26.6806 18.3804 0.0 0.0 0.0 73.0965 -24.8193 15.413 -40.5172 -0.499996 6.07052 11.8108 27.3863 -1.77064 7.15596 -0.0 -0.0 -0.0 0.0 -0.0 27.3092 -3.33687 -7.88927 -13.7957 -0.317947 -2.08816 40.1006 -21.8091 5.08309 -14.5814 0.0 0.0 0.0 0.0 0.0 
899.064 642.507 -1554.79 -72.1457 65.7524 71.0367 10.0824 0.374762 0.470352 10.0825 0.344073 0.493245 10.0853 0.326244 0.505214 10.0851 0.401938 0.447351 -24.6956 -11.7304 -2.16654 -25.6666 -21.6804 -8.1124 -0.0 0.0 -0.0 4.49973 7.57359 8.92361 -52.6031 -42.7923 54.0312 0.201989 -5.7141 0.0100805 79.2555 -3.75298 -8.56725 2.50988 -4.91786 15.0021 -0.0 0.0 -0.0 10.8758 -2.17712 -21.3243 -29.9982 39.7292 -39.2543 0.67953 18.6043 -0.111305 15.2188 -0.283003 1.91777 -1.03345 27.7784 18.5508 0.0 0.0 0.0 72.8528 -25.1623 15.5767 -36.4316 -0.255496 5.49226 8.72781 27.7912 -1.32431 6.14245 -0.0 -0.0 -0.0 0.0 -0.0 27.0741 -3.55491 -8.39299 -13.1943 -0.314632 -1.99595 40.748 -21.4075 5.13241 -14.4444 0.0 0.0 0.0 0.0 0.0 
884.979 643.434 -1558.54 -73.2441 65.4986 72.3996 10.0781 0.285498 0.478659 10.0781 0.254461 0.495855 10.0801 0.236547 0.504647 10.0799 0.313277 0.460956 -24.5266 -12.1084 -1.64028 -25.5884 -22.6266 -7.81275 -0.0 0.0 -0.0 4.81664 7.87925 9.49881 -50.9911 -42.7842 56.0513 0.215528 -6.09431 0.0114733 79.7804 -3.81325 -8.59734 2.11346 -3.47729 12.854 -0.0 0.0 -0.0 10.6811 -4.4743 -20.7357 -29.8237 39.927 -38.7022 0.879093 23.5318 -0.183109 11.9862 -0.26571 1.50529 -1.36959 28.4819 21.0687 0.0 0.0 0.0 68.0621 -25.0155 12.2278 -25.6349 0.186361 3.89679 5.69505 27.2193 -0.868448 2.56548 -0.0 -0.0 -0.0 0.0 -0.0 26.535 -3.69867 -8.64968 -12.9926 -0.313303 -1.96502 41.9473 -21.1703 5.2346 -14.5547 0.0 0.0 0.0 0.0 0.0 
865.588 644.851 -1564.49 -69.9451 64.76 69.2246 10.0153 0.230127 0.458774 10.0154 0.200468 0.472488 10.0168 0.182893 0.479564 10.0165 0.256335 0.444662 -24.4148 -12.3767 -1.27604 -25.5423 -23.2957 -7.61066 -0.0 0.0 -0.0 5.02585 7.77216 9.87411 -49.9023 -42.5487 57.1261 0.223689 -6.32323 0.0123558 80.2939 -3.87248 -8.62625 1.8176 -2.3328 11.2911 -0.0 0.0 -0.0 10.5945 -6.19208 -20.4011 -29.7531 40.0845 -38.3922 1.03643 27.1762 -0.250518 9.70696 -0.239546 1.21536 -1.60521 28.9638 22.837 0.0 0.0 0.0 64.8738 -24.6454 10.3394 -18.0402 0.313816 2.73922 3.05282 26.8108 -0.467538 -0.0891018 0.0 0.0 -0.0 0.0 -0.0 25.2928 -3.795 -9.19806 -12.8408 -0.312231 -1.94176 42.4736 -20.9749 5.27593 -14.641 0.0 0.0 0.0 0.0 0.0 
845.263 638.338 -1572.92 -65.4281 64.7516 65.3322 9.96615 0.420515 0.141391 9.96607 0.410665 0.167863 9.96743 0.404032 0.183255 9.96764 0.427903 0.117145 -23.8486 -12.6752 -0.334649 -25.046 -24.2757 -6.79388 -0.0 0.0 -0.0 4.46962 7.57236 8.86939 -48.5747 -42.6965 58.7455 0.224783 -6.35393 0.0124767 80.2537 -3.86783 -8.62401 1.57418 -1.00638 10.1695 -0.0 0.0 -0.0 10.6005 -8.34612 -20.1838 -29.5273 40.2345 -38.5152 1.1544 29.7624 -0.306767 8.07291 -0.213699 1.00824 -1.80001 28.645 24.054 0.0 0.0 0.0 63.5418 -24.4188 8.98147 -10.7054 0.290625 1.61485 -1.31539 24.9025 0.20131 -2.94977 0.0 0.0 -0.0 0.0 -0.0 22.1842 -3.78608 -10.0885 -12.001 -0.305187 -1.8131 42.0781 -20.7466 5.23503 -14.7015 0.0 0.0 0.0 0.0 0.0 
824.161 630.229 -1576.08 -63.8381 64.6075 63.7616 10.0792 0.528899 0.163432 10.079 0.517428 0.196757 10.0811 0.510056 0.215146 10.0814 0.537633 0.131891 -22.7036 -13.2178 0.532167 -23.9655 -25.7178 -6.03136 -0.0 0.0 -0.0 4.61019 7.55589 9.12214 -47.5544 -42.789 59.9453 0.173556 -4.91401 0.00744709 80.226 -3.86463 -8.62246 1.23693 0.372885 8.44148 -0.0 0.0 -0.0 10.3205 -9.7402 -19.4896 -28.9031 40.1147 -38.6337 1.24167 31.5938 -0.351296 6.91549 -0.191822 0.862007 -1.93704 28.446 24.928 0.0 0.0 0.0 60.1128 -24.0625 8.13354 -5.3638 0.183385 0.802458 -6.73718 21.3429 1.02461 -5.14535 0.0 0.0 -0.0 0.0 -0.0 19.8519 -6.33113 -10.8633 -11.4155 -0.299162 -1.72347 41.6534 -17.8444 5.13001 -14.7486 0.0 0.0 0.0 0.0 0.0 
804.04 623.559 -1581.28 -62.8212 64.7597 62.858 10.0757 0.473135 -0.0150389 10.0755 0.473133 0.015099 10.0759 0.472286 0.032069 10.0762 0.471424 -0.042924 -21.9558 -13.6243 0.677072 -23.2436 -26.576 -5.93095 -0.0 0.0 -0.0 5.17499 7.36442 10.1403 -46.8373 -42.819 60.5635 0.167567 -4.74524 0.00694288 80.2702 -3.86973 -8.62492 0.993164 1.45375 7.23717 -0.0 0.0 -0.0 10.1678 -10.736 -19.0867 -28.2418 40.4107 -40.0658 1.32668 33.3113 -0.39692 5.58748 -0.163086 0.694802 -2.01604 28.7889 25.5933 0.0 0.0 0.0 58.9927 -23.9801 7.31365 -1.60558 0.0627717 0.238396 -11.049 18.6321 1.67454 -6.95061 0.0 0.0 -0.0 0.0 -0.0 17.3687 -8.03314 -10.9325 -11.5335 -0.30045 -1.74153 41.3937 -15.6901 5.06694 -14.6966 0.0 0.0 0.0 0.0 0.0 
